<?xml version="1.0" encoding="utf-8"?>
<!-- Generator: Adobe Illustrator 26.0.3, SVG Export Plug-In . SVG Version: 6.00 Build 0)  -->
<svg version="1.1" id="Camada_1" xmlns="http://www.w3.org/2000/svg" xmlns:xlink="http://www.w3.org/1999/xlink" x="0px" y="0px"
	 viewBox="0 0 538.27 138.93" style="enable-background:new 0 0 538.27 138.93;" xml:space="preserve">
<style type="text/css">
	.st0{fill:#232422;}
	.st1{fill:#0C0C0D;}
</style>
<g>
	<path class="st0" d="M70.24,15.86c10.81,0,21.62-0.01,32.43,0c15.47,0.01,26.92,11.51,26.92,27.01c0,17.78,0.05,35.55-0.03,53.33
		c-0.03,5.99-2.33,11-7.87,13.82c-5.85,2.97-11.91,3.2-17.56-0.5c-5.37-3.52-6.65-9.08-6.6-15.1c0.03-4.88,0.01-9.77,0.12-14.65
		c0.03-1.47-0.58-1.69-1.84-1.69c-16.5,0.03-32.99,0.01-49.49,0.03c-3.49,0.01-5.11,1.7-5.13,5.18c-0.03,5.2,0.01,10.41-0.01,15.61
		c-0.01,2.89-0.6,3.47-3.54,3.51c-1.84,0.02-3.68,0-5.52-0.03c-1.36-0.03-2.46-0.65-2.43-2.09c0.16-7.11-0.65-14.26,0.41-21.34
		c1-6.7,5.17-10.68,11.84-11.67c1.98-0.29,3.96-0.46,5.97-0.45c15.77,0.03,31.55-0.03,47.32,0.07c2.08,0.01,2.54-0.59,2.43-2.53
		c-0.2-3.59,0.01-7.21-0.26-10.79c-0.29-3.77-2.39-5.66-6.19-6.06c-1.03-0.11-2.07-0.17-3.11-0.17c-12.57-0.01-25.14-0.01-37.72,0
		c-1.12,0-2.24,0.06-3.35,0.2c-3.4,0.42-5.38,2.22-5.81,5.65c-0.25,2.04-1.11,2.77-3.11,2.64c-2.07-0.13-4.16-0.09-6.24-0.01
		c-1.69,0.07-2.22-0.72-2.28-2.3c-0.31-9.1,5.43-15.9,14.42-17.03c2.22-0.28,4.45-0.43,6.7-0.42c12.89,0.03,25.78-0.01,38.68,0.04
		c2.15,0.01,4.33,0.17,6.44,0.6c8.8,1.78,13.32,7.55,13.35,16.95c0.03,11.85,0,23.7,0.02,35.55c0,2.4,0.08,4.79,0.2,7.19
		c0.13,2.75,1.13,3.86,3.46,3.99c2.88,0.16,4.41-0.88,4.89-3.42c0.18-0.93,0.22-1.91,0.22-2.86c0.01-16.9,0.01-33.79,0.01-50.69
		c0-9.57-6.2-15.8-15.72-15.8c-21.38,0-42.76,0-64.14,0c-9.36,0-15.59,6.25-15.59,15.66c-0.01,17.54,0,35.07,0,52.61
		c0,9.57,6.18,15.78,15.71,15.78c13.29,0,26.59-0.01,39.88,0.01c3.92,0,6.25,1.59,6.88,4.6c0.78,3.7-1.67,7.13-5.45,7.15
		c-14.73,0.07-29.48,0.35-44.2-0.12C21.7,122.9,10.91,111.01,10.9,97.39c0-18.42,0-36.83,0-55.25c0-14.49,11.63-26.2,26.19-26.27
		C48.14,15.81,59.19,15.86,70.24,15.86z"/>
	<path class="st1" d="M386.8,102.78c-10.17,0-20.33,0-30.5,0c-3.12,0-3.72-0.62-3.72-3.81c0-19.69,0-39.38,0-59.08
		c0-3.07,0.71-3.8,3.82-3.8c19.77-0.01,39.55-0.02,59.32,0.02c2.07,0,4.17,0.2,6.19,0.64c8.52,1.83,13.11,7.43,13.2,16.32
		c0.11,10.89,0.11,21.77,0,32.66c-0.11,10.64-6.83,16.95-18.05,17.03C406.97,102.84,396.88,102.78,386.8,102.78z M391.27,47.53
		c-8.24,0-16.49,0.04-24.73-0.04c-1.75-0.02-2.45,0.26-2.44,2.28c0.11,13.12,0.09,26.25,0.01,39.38c-0.01,1.9,0.49,2.4,2.38,2.38
		c12.64-0.08,25.29-0.03,37.94-0.05c4.16-0.01,8.32,0.04,12.47-0.18c3.91-0.21,6.02-2.04,6.3-5.87c0.74-10.3,0.59-20.62,0.11-30.92
		c-0.25-5.29-2.62-6.96-8.03-6.97C407.27,47.52,399.27,47.53,391.27,47.53z"/>
	<path class="st1" d="M488.74,102.78c-7.52,0-15.05,0.04-22.57-0.03c-1.91-0.02-3.85-0.2-5.7-0.61c-8.06-1.79-12.62-7.1-12.75-15.39
		c-0.19-11.44-0.21-22.89,0-34.33c0.17-9.3,5.7-14.92,14.87-15.98c4.87-0.56,9.75-0.32,14.62-0.34c10.89-0.05,21.77-0.02,32.66-0.01
		c2.48,0,4.94,0.24,7.36,0.8c7.83,1.81,12.48,7.26,12.58,15.29c0.13,11.52,0.15,23.05,0,34.58c-0.13,9.72-7.08,15.89-17.76,16.01
		C504.27,102.85,496.51,102.78,488.74,102.78z M488.74,47.53c0,0,0,0.01,0,0.01c-7.44,0-14.89-0.06-22.33,0.02
		c-4.5,0.05-7.1,2.46-7.16,6.94c-0.13,9.92-0.12,19.85-0.01,29.77c0.05,4.5,2.3,6.75,6.77,7.05c2.95,0.2,5.91,0.16,8.87,0.16
		c11.44,0.02,22.89,0.03,34.33,0c6.53-0.02,8.99-2.17,9.05-8.11c0.09-9.28,0.1-18.57-0.01-27.85c-0.06-5.63-2.56-7.97-8.16-7.99
		C502.98,47.51,495.86,47.53,488.74,47.53z"/>
	<path class="st1" d="M299.38,78.33c-8.09,0-16.18-0.01-24.26,0c-3.82,0-5.55,1.66-5.6,5.55c-0.06,5.2-0.01,10.41-0.02,15.62
		c-0.01,2.68-0.57,3.25-3.2,3.29c-1.92,0.03-3.84,0.03-5.77-0.01c-1.62-0.03-2.62-0.9-2.58-2.52c0.15-6.8-0.54-13.62,0.36-20.39
		c1.01-7.59,5.71-11.96,13.36-12.58c2.39-0.19,4.79-0.28,7.19-0.29c14.89-0.03,29.79-0.08,44.68,0.05c2.41,0.02,2.95-0.68,2.8-2.93
		c-0.23-3.43-0.01-6.89-0.25-10.31c-0.28-3.91-2.63-6.2-6.56-6.22c-14.49-0.08-28.99-0.08-43.48,0c-3.63,0.02-5.79,1.9-6.37,5.58
		c-0.38,2.41-1.49,3.04-3.69,2.88c-1.91-0.14-3.84-0.04-5.76-0.03c-1.6,0.01-2.36-0.75-2.31-2.34c0.25-8.68,4.08-15.64,14.55-17.17
		c4.86-0.71,9.75-0.4,14.63-0.42c10.33-0.04,20.66-0.09,30.99,0.02c5.33,0.05,10.56,0.74,14.77,4.54c4.14,3.74,5.15,8.74,5.18,13.95
		c0.1,14.81,0.04,29.63,0.03,44.44c0,2.99-0.75,3.72-3.64,3.74c-1.6,0.01-3.2,0.02-4.8,0c-2.59-0.04-3.3-0.75-3.31-3.54
		c-0.04-6.17-0.11-12.33,0.04-18.5c0.05-2.01-0.48-2.49-2.47-2.46C315.71,78.4,307.54,78.33,299.38,78.33z"/>
	<path class="st1" d="M199.54,47.53c-10.17,0-20.34,0-30.51,0c-3.66,0-4.32-0.68-4.33-4.34c-0.02-7.1-0.02-7.1,7.11-7.1
		c18.9,0,37.79-0.02,56.69,0.02c2.23,0,4.5,0.15,6.68,0.56c7.03,1.33,10.71,5.36,11.73,12.62c0.67,4.78,0.63,9.62,0.19,14.37
		c-0.92,9.83-6.16,14.51-16.11,14.58c-16.25,0.12-32.51,0.06-48.76,0.08c-4.26,0-5.73,1.46-5.74,5.76
		c-0.02,5.04,0.02,10.09-0.01,15.13c-0.02,2.88-0.72,3.54-3.54,3.56c-1.84,0.01-3.68,0.02-5.52,0c-1.51-0.02-2.59-0.84-2.59-2.28
		c0-7.35-0.85-14.75,0.61-22.02c1.39-6.89,5.99-10.64,13.09-11.19c2.39-0.19,4.79-0.28,7.19-0.29c14.49-0.03,28.99-0.01,43.48-0.01
		c4.52,0,5.75-1.16,6.29-5.65c0.39-3.2,0.17-6.39-0.17-9.56c-0.31-2.88-1.86-4.23-4.78-4.23C220.2,47.52,209.87,47.53,199.54,47.53z
		"/>
</g>
</svg>
